<svg t="1704544420955" class="icon" viewBox="0 0 1024 1024" version="1.1" xmlns="http://www.w3.org/2000/svg" p-id="1519" width="200" height="200"><path d="M976 928a48 48 0 0 1 4.608 95.776L976 1024h-896a48 48 0 0 1-4.608-95.776L80 928h896zM304 0h291.008c65.472 0 117.984 16.064 157.536 48.224 39.552 32.16 59.36 80.736 59.36 145.76 0 39.456-9.056 73.248-27.104 101.344-18.08 28.16-43.84 49.856-77.248 65.216v2.176c44.992 10.24 79.104 33.088 102.304 68.48 23.168 35.456 34.784 79.84 34.784 133.184 0 30.656-5.12 59.36-15.36 86.016a174.848 174.848 0 0 1-48.064 69.056c-21.856 19.36-49.792 34.688-83.904 46.016-34.112 11.328-74.688 16.992-121.728 16.992H304a64 64 0 0 1-64-64V64a64 64 0 0 1 64-64z m63.872 327.68h208.704c30.72 0 56.288-9.344 76.736-27.968 20.48-18.624 30.72-45.44 30.72-80.544 0-39.456-9.248-67.2-27.648-83.264-18.432-16.064-45.024-24.128-79.808-24.128h-208.704v215.872z m0 342.976h226.112c38.848 0 69.024-10.752 90.528-32.32 21.472-21.536 32.224-52.032 32.224-91.52 0-38.72-10.752-68.48-32.224-89.28-21.504-20.832-51.68-31.232-90.56-31.232h-226.08v244.352z" fill="#52505D" p-id="1520"></path></svg>
