<?xml version="1.0" standalone="no"?><!DOCTYPE svg PUBLIC "-//W3C//DTD SVG 1.1//EN" "http://www.w3.org/Graphics/SVG/1.1/DTD/svg11.dtd">
<svg t="1699430558302" class="icon" viewBox="0 0 1024 1024" version="1.1" xmlns="http://www.w3.org/2000/svg" p-id="7300"
     width="200" height="200"><path d="M690.603259 197.695594c-130.6015 63.541175-217.283722 58.476833-352.33558-1.032516-236.486062 0-372.078227 626.730021-195.176215 626.730021 149.263535 0 169.351036-183.255721 373.770775-183.255721 165.317163 0 262.342963 180.992167 372.618533 180.992167C1066.279431 821.084521 886.692263 197.695594 690.603259 197.695594L690.603259 197.695594zM339.797521 509.998413c-65.443501 0-118.522394-52.281737-118.522394-116.705002 0-64.34754 53.078893-116.678396 118.522394-116.678396 65.442478 0 118.503974 52.312436 118.503974 116.678396C458.288193 457.69928 405.238976 509.998413 339.797521 509.998413L339.797521 509.998413zM636.535853 405.341818c-19.346627-5.934153-30.097482-26.229384-23.983227-45.297672 5.997598-18.989493 26.609031-29.588899 45.927005-23.62507 19.351744 5.906523 30.191626 26.145473 24.044626 45.178969C676.529729 400.799362 655.918295 411.280064 636.535853 405.341818L636.535853 405.341818zM822.5545 435.8169c-6.149047 19.063171-26.638707 29.618575-45.985334 23.681352-19.295462-5.92085-30.099529-26.199709-24.057929-45.387723 6.113231-19.050891 26.755364-29.557176 45.955658-23.698748C817.836035 396.469754 828.642149 416.690284 822.5545 435.8169L822.5545 435.8169zM775.322779 351.141382c-6.17463 19.094894-26.691919 29.632901-46.016033 23.743774-19.262716-5.939269-30.128181-26.229384-24.088628-45.373397 6.118348-19.064194 26.727735-29.588899 45.985334-23.726378C770.616594 311.85768 781.362332 332.046488 775.322779 351.141382L775.322779 351.141382zM726.055702 463.348953c-6.236028 19.113313-26.723641 29.65132-46.077432 23.717168-19.261693-5.938246-30.067806-26.189476-24.058952-45.341674 6.118348-19.024286 26.756387-29.607318 45.957705-23.730471C721.224674 424.020226 732.006228 444.223361 726.055702 463.348953L726.055702 463.348953zM399.691633 395.060661c0 33.262568-27.279297 60.183707-61.002352 60.183707-33.789571 0-61.068867-26.921139-61.068867-60.183707 0-33.155121 27.279297-60.107983 61.068867-60.107983C372.412336 334.952678 399.691633 361.90554 399.691633 395.060661L399.691633 395.060661zM399.691633 395.060661" fill="#272636" p-id="7301"></path></svg>
