<?xml version="1.0" standalone="no"?><!DOCTYPE svg PUBLIC "-//W3C//DTD SVG 1.1//EN" "http://www.w3.org/Graphics/SVG/1.1/DTD/svg11.dtd">
<svg t="1699430665101" class="icon" viewBox="0 0 1024 1024" version="1.1" xmlns="http://www.w3.org/2000/svg" p-id="7439"
     width="200" height="200"><path d="M704.32 974.4H321.813c-77.546 0-150.613-30.4-205.76-85.547S30.507 760.64 30.507 683.2v-0.427c0-77.546 30.4-150.613 85.546-205.76 55.147-55.146 128.214-85.546 205.76-85.546h382.614c77.546 0 150.613 30.4 205.76 85.546 55.146 55.147 85.546 128.214 85.546 205.76v0.427c0 77.547-30.4 150.613-85.546 205.76S781.867 974.4 704.32 974.4zM321.813 466.24c-119.36 0-216.533 97.173-216.533 216.533v0.427c0 119.36 97.173 216.533 216.533 216.533h382.614c119.36 0 216.533-97.173 216.533-216.533v-0.427c0-119.36-97.173-216.533-216.533-216.533H321.813z" fill="#AC4CFD" p-id="7440"></path><path d="M263.893 655.68H412.8v57.387H263.893z" fill="#AC4CFD" p-id="7441"></path><path d="M311.115 756.241l0.35-148.907 57.387 0.135-0.352 148.906z m371.658 8.452c-45.653 0-82.88-37.12-82.88-82.88s37.12-82.88 82.88-82.88 82.88 37.12 82.88 82.88-37.12 82.88-82.88 82.88z m0-117.653c-19.2 0-34.88 15.68-34.88 34.88s15.68 34.88 34.88 34.88 34.88-15.68 34.88-34.88-15.573-34.88-34.88-34.88zM545.707 463.787l-57.174-31.04L588.587 248.32H385.813l-27.84-49.387 86.4-143.36 55.787 33.494-56.747 94.186h199.894l28.586 48z" fill="#AC4CFD" p-id="7442"></path></svg>
