<?xml version="1.0" standalone="no"?><!DOCTYPE svg PUBLIC "-//W3C//DTD SVG 1.1//EN" "http://www.w3.org/Graphics/SVG/1.1/DTD/svg11.dtd">
<svg t="1699428753354" class="icon" viewBox="0 0 1024 1024" version="1.1" xmlns="http://www.w3.org/2000/svg" p-id="2699"
     width="200" height="200"><path d="M846.79601145 250.49266768c-23.39154483-23.39154483-61.26701831-23.39154483-84.5861435 0L380.99286508 631.70967055 252.01348018 502.73028565c-23.39154483-23.39154483-61.26701831-23.39154483-84.58614348 0-23.39154483 23.39154483-23.39154483 61.26701831 0 84.58614349L380.92044544 800.80953789l46.49341106-46.49341106 0.07241966 0.07241964 419.30973528-419.3097353c23.39154483-23.31912517 23.39154483-61.19459868 1e-8-84.58614349z" fill="#9EE379" p-id="2700"></path><path d="M762.20986796 673.56822444L423.72045469 335.07881116c-23.39154483-23.39154483-23.39154483-61.26701831 1e-8-84.58614348 23.39154483-23.39154483 61.26701831-23.39154483 84.5861435 0l338.4169936 338.41699362c23.39154483 23.39154483 23.39154483 61.26701831 0 84.58614348-23.31912517 23.39154483-61.19459868 23.39154483-84.51372385 0.07241966z" fill="#FF8C8C" p-id="2701"></path></svg>
